Coordinates
version=1
nRows=26
nColumns=38
inDegrees=no

Units are S.I. units (second, meters, Newtons, ...)
If the header above contains a line with 'inDegrees', this indicates whether rotational values are in degrees (yes) or radians (no).

endheader
time	pelvis_tilt	pelvis_list	pelvis_rotation	pelvis_tx	pelvis_ty	pelvis_tz	hip_flexion_r	hip_adduction_r	hip_rotation_r	knee_angle_r	ankle_angle_r	subtalar_angle_r	mtp_angle_r	hip_flexion_l	hip_adduction_l	hip_rotation_l	knee_angle_l	ankle_angle_l	subtalar_angle_l	mtp_angle_l	lumbar_extension	lumbar_bending	lumbar_rotation	arm_flex_r	arm_add_r	arm_rot_r	elbow_flex_r	pro_sup_r	wrist_flex_r	wrist_dev_r	arm_flex_l	arm_add_l	arm_rot_l	elbow_flex_l	pro_sup_l	wrist_flex_l	wrist_dev_l
3.97	-0.607349	1.51903	-1.29884	1.05172	-0.304048	0.971855	0.304026	-0.0975698	-0.153424	0.624443	0.0397578	0	0	-0.00532777	0.00349042	-0.189729	0.207564	0.0911311	0	0	-0.0587846	0.00448987	-0.114524	-0.335971	-0.0907221	-1.5708	0	0.38882	0	0	-0.112271	-0.316601	0.234736	0.664677	0.969159	0	0
3.98	-0.633343	1.51882	-1.27387	1.05228	-0.305966	0.972323	0.301807	-0.0966898	-0.161605	0.597168	0.036651	0	0	-0.0115884	0.0042726	-0.189045	0.199069	0.0896143	0	0	-0.0494636	0.000416421	-0.136682	-0.485505	-0.00387338	-0.0831881	0.460824	1.39775	0	0	-0.126938	-0.316153	0.221297	0.663356	0.961767	0	0
3.99	-0.663632	1.5176	-1.24361	1.05295	-0.307904	0.972574	0.298665	-0.0960876	-0.170673	0.57118	0.033003	0	0	-0.0183953	0.00440137	-0.187798	0.191394	0.0893029	0	0	-0.049464	0.00113534	-0.143715	-0.484265	-0.0055153	-0.0603591	0.474766	1.38517	0	0	-0.124933	-0.315232	0.226204	0.65671	0.961859	0	0
4	-0.697231	1.5169	-1.20958	1.05362	-0.309755	0.972736	0.296357	-0.0956433	-0.178917	0.54619	0.0280177	0	0	-0.0241373	0.00434534	-0.186804	0.184149	0.0889901	0	0	-0.0489776	0.00197889	-0.150863	-0.481146	-0.00556958	-0.0459861	0.485851	1.37775	0	0	-0.122499	-0.314587	0.233801	0.649159	0.960823	0	0
4.01	-0.72118	1.51529	-1.1854	1.05422	-0.311627	0.972958	0.292889	-0.0952757	-0.185381	0.521881	0.0224916	0	0	-0.0315866	0.00460982	-0.184768	0.175657	0.0881409	0	0	-0.0494515	0.00274679	-0.157352	-0.476902	-0.00551409	-0.0318567	0.493444	1.36991	0	0	-0.121122	-0.313494	0.239382	0.643215	0.959651	0	0
4.02	-0.741743	1.51397	-1.16486	1.05475	-0.313442	0.973128	0.290034	-0.0951828	-0.190168	0.498996	0.0166997	0	0	-0.0387124	0.0051463	-0.182522	0.167128	0.0874999	0	0	-0.0496392	0.00324758	-0.163517	-0.471681	-0.00591183	-0.0153062	0.498435	1.35645	0	0	-0.12126	-0.311496	0.240091	0.639121	0.9612	0	0
4.03	-0.767584	1.51553	-1.1383	1.05499	-0.315093	0.97326	0.290047	-0.0955861	-0.193243	0.47669	0.00974589	0	0	-0.0418171	0.00602604	-0.178726	0.160273	0.0860943	0	0	-0.0514833	0.000744326	-0.159991	-0.417352	0.0245462	-0.520609	0.411992	0.348599	0	0	-0.112142	-0.312568	0.256037	0.633063	0.961114	0	0
4.04	-0.793488	1.51262	-1.11212	1.05576	-0.316915	0.97324	0.286017	-0.0954954	-0.196932	0.4558	0.00315246	0	0	-0.0493676	0.00549536	-0.178796	0.15351	0.0870662	0	0	-0.0477275	0.00463042	-0.176277	-0.461673	-0.0124131	0.0496479	0.512682	1.25339	0	0	-0.12082	-0.307029	0.243798	0.628656	0.965279	0	0
4.05	-0.826527	1.5123	-1.07772	1.05625	-0.318561	0.973174	0.284769	-0.0957186	-0.198367	0.435551	-0.00433123	0	0	-0.0530051	0.00504084	-0.177991	0.148413	0.0874425	0	0	-0.0464109	0.00581396	-0.181903	-0.453755	-0.00892108	0.0470579	0.509903	1.26852	0	0	-0.119636	-0.305612	0.250147	0.623984	0.963932	0	0
4.06	-0.849736	1.51127	-1.05381	1.05663	-0.320266	0.973184	0.282475	-0.096209	-0.198522	0.415941	-0.0109484	0	0	-0.0583208	0.00498431	-0.175929	0.142133	0.0871608	0	0	-0.0459914	0.00687482	-0.186189	-0.446186	-0.00615657	0.0487263	0.509027	1.26582	0	0	-0.118591	-0.3035	0.254368	0.619592	0.964158	0	0
4.07	-0.873088	1.50946	-1.02927	1.05695	-0.322066	0.973272	0.278464	-0.0964374	-0.198694	0.395993	-0.0157459	0	0	-0.0646704	0.00440811	-0.172832	0.135332	0.0867277	0	0	-0.0460375	0.00855393	-0.189978	-0.43887	-0.00341316	0.0523429	0.507489	1.25665	0	0	-0.117465	-0.300766	0.257418	0.615194	0.965999	0	0
4.08	-0.893558	1.50722	-1.0075	1.05723	-0.323827	0.973381	0.273949	-0.0967774	-0.198446	0.377025	-0.0184037	0	0	-0.0715367	0.00361187	-0.169928	0.12827	0.0862689	0	0	-0.0463247	0.0105097	-0.192547	-0.432073	-0.000472523	0.0559762	0.505647	1.24575	0	0	-0.115705	-0.298745	0.264369	0.611503	0.965211	0	0
4.09	-1.13803	1.5291	-0.756781	1.05572	-0.327136	0.972032	0.296083	-0.103739	-0.201148	0.361446	-0.016472	0	0	-0.0500718	0.00697928	-0.162154	0.123544	0.0841746	0	0	-0.00648597	0.000469907	-0.202343	-0.433257	0.00633169	0.0637587	0.490495	1.23393	0	0	-0.129499	-0.297449	0.262574	0.602713	0.968631	0	0
4.1	-1.16482	1.52716	-0.729509	1.05588	-0.328801	0.972055	0.293235	-0.104604	-0.199851	0.345693	-0.0167625	0	0	-0.0563071	0.00618469	-0.160147	0.115977	0.0831298	0	0	-0.00604888	0.00254795	-0.203207	-0.425863	0.00802129	0.0722254	0.488456	1.21688	0	0	-0.128417	-0.294389	0.266035	0.599791	0.970413	0	0
4.11	-0.959783	1.50155	-0.939054	1.05766	-0.328916	0.973522	0.264084	-0.0991456	-0.195063	0.329188	-0.0203243	0	0	-0.0911651	0.0009487	-0.16287	0.105537	0.0833174	0	0	-0.0456911	0.0168387	-0.195239	-0.410526	0.00682104	0.0721637	0.497832	1.20253	0	0	-0.112429	-0.290715	0.278998	0.604006	0.962469	0	0
4.12	-0.983148	1.499	-0.914347	1.05767	-0.330685	0.973617	0.260081	-0.0997943	-0.194445	0.314782	-0.0216527	0	0	-0.0979421	-0.000822765	-0.160136	0.0984665	0.0824993	0	0	-0.0456933	0.0195805	-0.1952	-0.404116	0.0109713	0.0669892	0.492879	1.19142	0	0	-0.111788	-0.287549	0.282787	0.60291	0.958786	0	0
4.13	-1.02246	1.49895	-0.872688	1.05745	-0.33247	0.97373	0.258442	-0.101016	-0.193149	0.300315	-0.0243047	0	0	-0.101749	-0.00233967	-0.156212	0.0909185	0.0803702	0	0	-0.0460126	0.0198365	-0.185334	-0.371778	0.0435089	-0.359267	0.444332	0.404754	0	0	-0.103503	-0.286929	0.297388	0.602138	0.95919	0	0
4.14	-1.28525	1.5184	-0.604657	1.05556	-0.335834	0.97244	0.280927	-0.108111	-0.194458	0.289615	-0.0237226	0	0	-0.0809375	6.75584e-05	-0.147915	0.0850679	0.0775521	0	0	-0.00566533	0.0105286	-0.191752	-0.371479	0.0495783	-0.380485	0.421595	0.369472	0	0	-0.118621	-0.28392	0.287214	0.59685	0.971284	0	0
4.15	-1.30424	1.51555	-0.5852	1.05531	-0.337597	0.972545	0.277958	-0.109087	-0.192715	0.279094	-0.0267488	0	0	-0.0878215	-0.00194841	-0.145254	0.0774071	0.0763964	0	0	-0.00501116	0.0134156	-0.189898	-0.362095	0.0527893	-0.403089	0.408734	0.345876	0	0	-0.120202	-0.280693	0.289817	0.597393	0.967689	0	0
4.16	-1.07251	1.49126	-0.821512	1.05648	-0.33782	0.974034	0.248273	-0.104647	-0.187481	0.268396	-0.0327228	0	0	-0.124301	-0.00752056	-0.148758	0.0667452	0.0762805	0	0	-0.0448349	0.028125	-0.178907	-0.344585	0.0539569	-0.432606	0.405942	0.321314	0	0	-0.0795349	-0.268373	0.129894	0.543749	1.5708	0	0
4.17	-1.07978	1.48762	-0.814903	1.05601	-0.33975	0.974246	0.243376	-0.105836	-0.185099	0.258945	-0.0377492	0	0	-0.134029	-0.00942679	-0.144719	0.0577339	0.074264	0	0	-0.0457047	0.0298276	-0.175566	-0.338401	0.0565041	-0.451313	0.398481	0.30513	0	0	-0.108437	-0.271827	0.287872	0.608612	0.985229	0	0
4.18	-1.07041	1.48363	-0.825144	1.05536	-0.341695	0.974537	0.237681	-0.107972	-0.182779	0.251415	-0.0431034	0	0	-0.145999	-0.0105279	-0.138254	0.0471492	0.0710838	0	0	-0.0475297	0.0315542	-0.172125	-0.336145	0.0580236	-0.451411	0.399357	0.302069	0	0	-0.112025	-0.269393	0.286662	0.614698	0.978238	0	0
4.19	-1.08005	1.48191	-0.813599	1.055	-0.343446	0.974498	0.235667	-0.111542	-0.18203	0.245977	-0.0492123	0	0	-0.150963	-0.0121902	-0.135644	0.0430487	0.0713107	0	0	-0.0465669	0.0330698	-0.171589	-0.334747	0.058824	-0.446609	0.401531	0.297708	0	0	-0.116091	-0.267337	0.285993	0.620197	0.973241	0	0
4.2	-1.09079	1.48055	-0.800406	1.05453	-0.34513	0.974427	0.233866	-0.115355	-0.180797	0.24079	-0.0568405	0	0	-0.154403	-0.0141822	-0.133956	0.0409365	0.0724043	0	0	-0.0453363	0.0340703	-0.17197	-0.331974	0.0587467	-0.434834	0.401991	0.298708	0	0	-0.120792	-0.265621	0.283801	0.625976	0.969702	0	0
4.21	-1.09489	1.47837	-0.795226	1.05376	-0.346954	0.974422	0.230902	-0.118577	-0.178126	0.235975	-0.0655409	0	0	-0.160292	-0.0162324	-0.131838	0.0368458	0.0730548	0	0	-0.0449852	0.0350563	-0.171138	-0.330105	0.0581781	-0.420634	0.402427	0.302144	0	0	-0.126397	-0.263283	0.278184	0.63178	0.970967	0	0
4.22	-1.09385	1.47588	-0.796089	1.05284	-0.348827	0.974435	0.227903	-0.12186	-0.175218	0.232778	-0.0748	0	0	-0.167248	-0.0180895	-0.129506	0.0323287	0.0731572	0	0	-0.0452767	0.0360334	-0.169148	-0.330185	0.0583427	-0.413054	0.406321	0.306895	0	0	-0.131903	-0.260897	0.272961	0.636963	0.974023	0	0
